<svg xmlns="http://www.w3.org/2000/svg" xmlns:xlink="http://www.w3.org/1999/xlink" version="1.1" x="0px" y="0px" viewBox="0 0 100 100" enable-background="new 0 0 100 100" xml:space="preserve"><g><path d="M88.971,32.119c0-0.597-0.318-1.147-0.834-1.445s-1.15-0.296-1.666,0.002L54.269,49.268   c-1.713,0.989-2.769,2.816-2.769,4.795v37.185c0,0.595,0.317,1.145,0.833,1.442c0.515,0.298,1.15,0.299,1.667,0.001L84.971,74.81   c2.476-1.43,4-4.07,4-6.929V32.119z"></path><path d="M13.529,30.675c-0.516-0.297-1.15-0.298-1.666,0s-0.834,0.847-0.834,1.442c0,0,0,0.001,0,0.002v35.762   c0,2.858,1.525,5.499,4,6.929L46,92.69c0,0,0.001,0.001,0.002,0.001c0.516,0.298,1.151,0.297,1.667-0.001   c0.515-0.298,0.831-0.849,0.831-1.443V54.062c0-1.979-1.055-3.806-2.769-4.795L13.529,30.675z"></path><path d="M84.971,28.078c0.516-0.297,0.833-0.847,0.834-1.442c0-0.595-0.316-1.146-0.832-1.443c0,0-0.001-0.001-0.002-0.001L54,7.31   c-2.476-1.429-5.525-1.429-8,0L15.029,25.19c-0.001,0-0.002,0.001-0.002,0.001c-0.516,0.298-0.833,0.849-0.833,1.444   c0.001,0.596,0.319,1.144,0.835,1.442L47.231,46.67c1.713,0.989,3.824,0.989,5.537,0L84.971,28.078z"></path></g></svg>